<svg width="147" height="23" viewBox="0 0 147 23" fill="none" xmlns="http://www.w3.org/2000/svg">
<path d="M8.38 17L3.66 10.8V17H0.24V2.96H3.66V9.12L8.34 2.96H12.36L6.92 9.84L12.56 17H8.38ZM15.9053 4.68C15.3053 4.68 14.812 4.50667 14.4253 4.16C14.052 3.8 13.8653 3.36 13.8653 2.84C13.8653 2.30667 14.052 1.86667 14.4253 1.52C14.812 1.16 15.3053 0.979999 15.9053 0.979999C16.492 0.979999 16.972 1.16 17.3453 1.52C17.732 1.86667 17.9253 2.30667 17.9253 2.84C17.9253 3.36 17.732 3.8 17.3453 4.16C16.972 4.50667 16.492 4.68 15.9053 4.68ZM17.6053 5.84V17H14.1853V5.84H17.6053ZM19.4038 11.42C19.4038 10.26 19.6371 9.24667 20.1038 8.38C20.5838 7.51333 21.2438 6.84667 22.0838 6.38C22.9371 5.91333 23.9104 5.68 25.0038 5.68C26.4038 5.68 27.5704 6.04667 28.5038 6.78C29.4504 7.51333 30.0704 8.54667 30.3638 9.88H26.7238C26.4171 9.02667 25.8238 8.6 24.9438 8.6C24.3171 8.6 23.8171 8.84667 23.4438 9.34C23.0704 9.82 22.8838 10.5133 22.8838 11.42C22.8838 12.3267 23.0704 13.0267 23.4438 13.52C23.8171 14 24.3171 14.24 24.9438 14.24C25.8238 14.24 26.4171 13.8133 26.7238 12.96H30.3638C30.0704 14.2667 29.4504 15.2933 28.5038 16.04C27.5571 16.7867 26.3904 17.16 25.0038 17.16C23.9104 17.16 22.9371 16.9267 22.0838 16.46C21.2438 15.9933 20.5838 15.3267 20.1038 14.46C19.6371 13.5933 19.4038 12.58 19.4038 11.42ZM39.0531 5.72C40.3331 5.72 41.3598 6.14667 42.1331 7C42.9065 7.84 43.2931 9 43.2931 10.48V17H39.8931V10.94C39.8931 10.1933 39.6998 9.61333 39.3131 9.2C38.9265 8.78667 38.4065 8.58 37.7531 8.58C37.0998 8.58 36.5798 8.78667 36.1931 9.2C35.8065 9.61333 35.6131 10.1933 35.6131 10.94V17H32.1931V2.2H35.6131V7.34C35.9598 6.84667 36.4331 6.45333 37.0331 6.16C37.6331 5.86667 38.3065 5.72 39.0531 5.72ZM47.3897 4.68C46.7897 4.68 46.2964 4.50667 45.9097 4.16C45.5364 3.8 45.3497 3.36 45.3497 2.84C45.3497 2.30667 45.5364 1.86667 45.9097 1.52C46.2964 1.16 46.7897 0.979999 47.3897 0.979999C47.9764 0.979999 48.4564 1.16 48.8297 1.52C49.2164 1.86667 49.4097 2.30667 49.4097 2.84C49.4097 3.36 49.2164 3.8 48.8297 4.16C48.4564 4.50667 47.9764 4.68 47.3897 4.68ZM49.0897 5.84V17H45.6697V5.84H49.0897ZM57.7881 14.1V17H56.0481C54.8081 17 53.8415 16.7 53.1481 16.1C52.4548 15.4867 52.1081 14.4933 52.1081 13.12V8.68H50.7481V5.84H52.1081V3.12H55.5281V5.84H57.7681V8.68H55.5281V13.16C55.5281 13.4933 55.6081 13.7333 55.7681 13.88C55.9281 14.0267 56.1948 14.1 56.5681 14.1H57.7881ZM59.0131 11.4C59.0131 10.2533 59.2265 9.24667 59.6531 8.38C60.0931 7.51333 60.6865 6.84667 61.4331 6.38C62.1798 5.91333 63.0131 5.68 63.9331 5.68C64.7198 5.68 65.4065 5.84 65.9931 6.16C66.5931 6.48 67.0531 6.9 67.3731 7.42V5.84H70.7931V17H67.3731V15.42C67.0398 15.94 66.5731 16.36 65.9731 16.68C65.3865 17 64.6998 17.16 63.9131 17.16C63.0065 17.16 62.1798 16.9267 61.4331 16.46C60.6865 15.98 60.0931 15.3067 59.6531 14.44C59.2265 13.56 59.0131 12.5467 59.0131 11.4ZM67.3731 11.42C67.3731 10.5667 67.1331 9.89333 66.6531 9.4C66.1865 8.90667 65.6131 8.66 64.9331 8.66C64.2531 8.66 63.6731 8.90667 63.1931 9.4C62.7265 9.88 62.4931 10.5467 62.4931 11.4C62.4931 12.2533 62.7265 12.9333 63.1931 13.44C63.6731 13.9333 64.2531 14.18 64.9331 14.18C65.6131 14.18 66.1865 13.9333 66.6531 13.44C67.1331 12.9467 67.3731 12.2733 67.3731 11.42ZM82.7656 2.96C84.2456 2.96 85.539 3.25333 86.6456 3.84C87.7523 4.42667 88.6056 5.25333 89.2056 6.32C89.819 7.37333 90.1256 8.59333 90.1256 9.98C90.1256 11.3533 89.819 12.5733 89.2056 13.64C88.6056 14.7067 87.7456 15.5333 86.6256 16.12C85.519 16.7067 84.2323 17 82.7656 17H77.5056V2.96H82.7656ZM82.5456 14.04C83.839 14.04 84.8456 13.6867 85.5656 12.98C86.2856 12.2733 86.6456 11.2733 86.6456 9.98C86.6456 8.68667 86.2856 7.68 85.5656 6.96C84.8456 6.24 83.839 5.88 82.5456 5.88H80.9256V14.04H82.5456ZM102.557 11.24C102.557 11.56 102.537 11.8933 102.497 12.24H94.7569C94.8102 12.9333 95.0302 13.4667 95.4169 13.84C95.8169 14.2 96.3035 14.38 96.8769 14.38C97.7302 14.38 98.3235 14.02 98.6569 13.3H102.297C102.11 14.0333 101.77 14.6933 101.277 15.28C100.797 15.8667 100.19 16.3267 99.4569 16.66C98.7235 16.9933 97.9035 17.16 96.9969 17.16C95.9035 17.16 94.9302 16.9267 94.0769 16.46C93.2235 15.9933 92.5569 15.3267 92.0769 14.46C91.5969 13.5933 91.3569 12.58 91.3569 11.42C91.3569 10.26 91.5902 9.24667 92.0569 8.38C92.5369 7.51333 93.2035 6.84667 94.0569 6.38C94.9102 5.91333 95.8902 5.68 96.9969 5.68C98.0769 5.68 99.0369 5.90667 99.8769 6.36C100.717 6.81333 101.37 7.46 101.837 8.3C102.317 9.14 102.557 10.12 102.557 11.24ZM99.0569 10.34C99.0569 9.75333 98.8569 9.28667 98.4569 8.94C98.0569 8.59333 97.5569 8.42 96.9569 8.42C96.3835 8.42 95.8969 8.58667 95.4969 8.92C95.1102 9.25333 94.8702 9.72667 94.7769 10.34H99.0569ZM108.901 17.16C107.928 17.16 107.061 16.9933 106.301 16.66C105.541 16.3267 104.941 15.8733 104.501 15.3C104.061 14.7133 103.814 14.06 103.761 13.34H107.141C107.181 13.7267 107.361 14.04 107.681 14.28C108.001 14.52 108.394 14.64 108.861 14.64C109.288 14.64 109.614 14.56 109.841 14.4C110.081 14.2267 110.201 14.0067 110.201 13.74C110.201 13.42 110.034 13.1867 109.701 13.04C109.368 12.88 108.828 12.7067 108.081 12.52C107.281 12.3333 106.614 12.14 106.081 11.94C105.548 11.7267 105.088 11.4 104.701 10.96C104.314 10.5067 104.121 9.9 104.121 9.14C104.121 8.5 104.294 7.92 104.641 7.4C105.001 6.86667 105.521 6.44667 106.201 6.14C106.894 5.83333 107.714 5.68 108.661 5.68C110.061 5.68 111.161 6.02667 111.961 6.72C112.774 7.41333 113.241 8.33333 113.361 9.48H110.201C110.148 9.09333 109.974 8.78667 109.681 8.56C109.401 8.33333 109.028 8.22 108.561 8.22C108.161 8.22 107.854 8.3 107.641 8.46C107.428 8.60667 107.321 8.81333 107.321 9.08C107.321 9.4 107.488 9.64 107.821 9.8C108.168 9.96 108.701 10.12 109.421 10.28C110.248 10.4933 110.921 10.7067 111.441 10.92C111.961 11.12 112.414 11.4533 112.801 11.92C113.201 12.3733 113.408 12.9867 113.421 13.76C113.421 14.4133 113.234 15 112.861 15.52C112.501 16.0267 111.974 16.4267 111.281 16.72C110.601 17.0133 109.808 17.16 108.901 17.16ZM117.233 4.68C116.633 4.68 116.14 4.50667 115.753 4.16C115.38 3.8 115.193 3.36 115.193 2.84C115.193 2.30667 115.38 1.86667 115.753 1.52C116.14 1.16 116.633 0.979999 117.233 0.979999C117.82 0.979999 118.3 1.16 118.673 1.52C119.06 1.86667 119.253 2.30667 119.253 2.84C119.253 3.36 119.06 3.8 118.673 4.16C118.3 4.50667 117.82 4.68 117.233 4.68ZM118.933 5.84V17H115.513V5.84H118.933ZM125.652 5.68C126.439 5.68 127.125 5.84 127.712 6.16C128.312 6.48 128.772 6.9 129.092 7.42V5.84H132.512V16.98C132.512 18.0067 132.305 18.9333 131.892 19.76C131.492 20.6 130.872 21.2667 130.032 21.76C129.205 22.2533 128.172 22.5 126.932 22.5C125.279 22.5 123.939 22.1067 122.912 21.32C121.885 20.5467 121.299 19.4933 121.152 18.16H124.532C124.639 18.5867 124.892 18.92 125.292 19.16C125.692 19.4133 126.185 19.54 126.772 19.54C127.479 19.54 128.039 19.3333 128.452 18.92C128.879 18.52 129.092 17.8733 129.092 16.98V15.4C128.759 15.92 128.299 16.3467 127.712 16.68C127.125 17 126.439 17.16 125.652 17.16C124.732 17.16 123.899 16.9267 123.152 16.46C122.405 15.98 121.812 15.3067 121.372 14.44C120.945 13.56 120.732 12.5467 120.732 11.4C120.732 10.2533 120.945 9.24667 121.372 8.38C121.812 7.51333 122.405 6.84667 123.152 6.38C123.899 5.91333 124.732 5.68 125.652 5.68ZM129.092 11.42C129.092 10.5667 128.852 9.89333 128.372 9.4C127.905 8.90667 127.332 8.66 126.652 8.66C125.972 8.66 125.392 8.90667 124.912 9.4C124.445 9.88 124.212 10.5467 124.212 11.4C124.212 12.2533 124.445 12.9333 124.912 13.44C125.392 13.9333 125.972 14.18 126.652 14.18C127.332 14.18 127.905 13.9333 128.372 13.44C128.852 12.9467 129.092 12.2733 129.092 11.42ZM141.786 5.72C143.093 5.72 144.133 6.14667 144.906 7C145.693 7.84 146.086 9 146.086 10.48V17H142.686V10.94C142.686 10.1933 142.493 9.61333 142.106 9.2C141.719 8.78667 141.199 8.58 140.546 8.58C139.893 8.58 139.373 8.78667 138.986 9.2C138.599 9.61333 138.406 10.1933 138.406 10.94V17H134.986V5.84H138.406V7.32C138.753 6.82667 139.219 6.44 139.806 6.16C140.393 5.86667 141.053 5.72 141.786 5.72Z" fill="#A9ACA5"/>
</svg>
