<svg width="40" height="40" viewBox="0 0 40 40" fill="none" xmlns="http://www.w3.org/2000/svg">
<rect width="40" height="40" rx="4" fill="#AE9AFE"/>
<path d="M20.5004 11C18.8542 10.9999 17.2434 11.4779 15.8636 12.3758C14.4839 13.2738 13.3946 14.553 12.728 16.0582C12.0614 17.5634 11.8463 19.2298 12.1087 20.855C12.3711 22.4801 13.0998 23.9941 14.2062 25.213C15.3127 26.4319 16.7493 27.3033 18.3415 27.7214C19.9337 28.1394 21.6131 28.0861 23.1756 27.5679C24.7381 27.0497 26.1166 26.089 27.1435 24.8023C28.1704 23.5157 28.8015 21.9585 28.9604 20.32C28.9694 20.2221 28.9494 20.1238 28.9028 20.0372C28.8563 19.9506 28.7852 19.8797 28.6986 19.8333C28.6119 19.7869 28.5135 19.767 28.4157 19.7762C28.3178 19.7854 28.2248 19.8232 28.1484 19.885C27.6316 20.3032 27.0366 20.6141 26.3982 20.7996C25.7598 20.9851 25.0908 21.0414 24.4304 20.9652C23.77 20.8891 23.1314 20.682 22.552 20.3561C21.9726 20.0302 21.4639 19.5921 21.0559 19.0672C20.6478 18.5424 20.3485 17.9415 20.1755 17.2996C20.0024 16.6578 19.9591 15.9878 20.0481 15.329C20.1371 14.6702 20.3565 14.0357 20.6936 13.4628C21.0307 12.8898 21.4787 12.3898 22.0114 11.992C22.0904 11.9329 22.1502 11.8518 22.1832 11.7589C22.2163 11.6659 22.2211 11.5652 22.197 11.4695C22.1729 11.3739 22.1211 11.2874 22.048 11.2211C21.975 11.1548 21.8839 11.1117 21.7864 11.097C21.3607 11.0324 20.9309 11 20.5004 11Z" fill="white"/>
</svg>
